<?xml version="1.0" encoding="UTF-8"?>
<!DOCTYPE svg PUBLIC "-//W3C//DTD SVG 1.1//EN" "http://www.w3.org/Graphics/SVG/1.1/DTD/svg11.dtd">
<svg version="1.1" xmlns="http://www.w3.org/2000/svg" xmlns:xlink="http://www.w3.org/1999/xlink" x="0" y="0" width="530" height="530" viewBox="0, 0, 530, 530">
  <g id="Layer_1">
    <g>
      <path d="M265,530 C411.35,530 530,411.36 530,265 C530,118.64 411.35,0 265,0 C118.64,0 -0,118.64 -0,265 C-0,411.36 118.64,530 265,530 z" fill="#156F77"/>
      <path d="M244.79,420 L182.09,420 C171.21,420 168.24,416.74 168.05,405.86 C167.55,385.99 167.45,366.11 166.07,346.23 C165.07,332.19 158.85,320.13 149.36,309.35 C126.51,283.14 111.28,253.18 110.1,217.67 C108.32,166.45 137.49,122.44 187.63,101.67 C249.63,75.97 333.99,91.39 375.33,162.3 C389.56,186.72 396.68,212.93 391.05,241.4 C389.17,251 391.45,259.6 397.28,267.02 C403.11,274.54 409.93,281.46 415.57,289.07 C418.24,292.73 420.61,297.67 420.52,301.93 C420.32,307.57 414.78,309.05 409.73,310.03 C394.8,313.2 394.9,313.3 394.7,328.63 C394.6,338.23 394.5,347.82 394.3,357.41 C394.01,370.26 387.78,377.68 374.93,379.07 C367.71,379.76 360.19,379.27 352.87,378.57 C332.9,376.89 322.81,385.1 320.93,404.97 C319.74,418.13 317.87,419.81 304.42,419.91 C284.54,420.01 264.66,419.91 244.79,420.01 C244.79,419.91 244.79,419.91 244.79,420.01 z" fill="#000000"/>
      <path d="M237.03,306.79 C239.38,305.134 240.869,302.516 241.09,299.65 C242.08,290.64 246.94,262.79 264.67,258.83 C288.95,253.38 296.19,244.85 303.32,236.03 C311.74,225.63 331.36,225.33 335.52,221.67 C343.95,214.23 340.97,212.25 341.47,208.78 C342.27,203.24 350.39,204.82 352.37,198.88 C354.35,192.93 355.84,183.52 349.89,173.61 C343.95,163.7 338.99,165.68 337.01,160.73 C334.93,155.67 336.21,149.13 328.59,147.35 C318.19,144.87 318.68,140.31 311.25,134.96 C304.31,130.01 294.5,133.28 289.45,132.98 C282.01,132.48 282.81,126.84 278.05,123.57 C271.61,119.11 265.17,125.55 260.21,123.57 C255.26,121.58 252.29,118.61 244.36,118.61 C236.43,118.61 229.99,126.04 225.04,126.04 C220.08,126.04 211.16,121.09 205.22,129.02 C200.56,135.16 183.92,130.5 175,136.45 C166.08,142.39 165.58,155.77 163.6,159.73 C161.62,163.7 153,163.4 151.21,170.13 C148.73,179.55 154.19,184.01 151.21,187.98 C148.24,191.94 137.93,204.03 140.31,216.71 C144.77,240.99 151.71,239.01 154.19,244.46 C156.66,249.91 155.27,261.2 160.13,265.26 C166.57,270.72 175.99,266.26 179.95,268.24 C183.91,270.22 191.35,279.64 200.26,282.61 C209.18,285.58 222.56,282.11 226.03,285.58 C231.48,291.03 229,304.41 232.96,306.39 C234.95,307.39 235.74,307.68 237.03,306.79 z" fill="#156F77"/>
    </g>
  </g>
</svg>
